<svg xmlns="http://www.w3.org/2000/svg" xmlns:xlink="http://www.w3.org/1999/xlink" width="4000" zoomAndPan="magnify" viewBox="0 0 3000 2250.000011" height="3000" preserveAspectRatio="xMidYMid meet" version="1.0"><defs><clipPath id="id1"><path d="M 0.667969 0 L 2999.332031 0 L 2999.332031 2249 L 0.667969 2249 Z M 0.667969 0 " clip-rule="nonzero"/></clipPath><clipPath id="id2"><path d="M 960 1499 L 1121 1499 L 1121 1513.136719 L 960 1513.136719 Z M 960 1499 " clip-rule="nonzero"/></clipPath></defs><g clip-path="url(#id1)"><path fill="#ffffff" d="M 0.667969 0 L 2999.332031 0 L 2999.332031 2256.496094 L 0.667969 2256.496094 Z M 0.667969 0 " fill-opacity="1" fill-rule="nonzero"/><path fill="#043374" d="M 0.667969 0 L 2999.332031 0 L 2999.332031 2249 L 0.667969 2249 Z M 0.667969 0 " fill-opacity="1" fill-rule="nonzero"/><path fill="#ffffff" d="M 0.667969 0 L 2999.332031 0 L 2999.332031 2249 L 0.667969 2249 Z M 0.667969 0 " fill-opacity="1" fill-rule="nonzero"/><path fill="#043374" d="M 0.667969 0 L 2999.332031 0 L 2999.332031 2249 L 0.667969 2249 Z M 0.667969 0 " fill-opacity="1" fill-rule="nonzero"/></g><path fill="#30343b" d="M 2275.339844 1230.253906 L 1167.667969 1230.253906 C 1131.957031 1230.253906 1103.019531 1201.304688 1103.019531 1165.613281 L 1103.019531 433.652344 C 1103.019531 397.945312 1131.957031 369.007812 1167.667969 369.007812 L 2275.339844 369.007812 C 2311.03125 369.007812 2339.984375 397.945312 2339.984375 433.652344 L 2339.984375 1165.613281 C 2339.984375 1201.304688 2311.03125 1230.253906 2275.339844 1230.253906 " fill-opacity="1" fill-rule="nonzero"/><path fill="#70d1f6" d="M 1161.289062 1026.582031 L 2281.699219 1026.582031 L 2281.699219 409.585938 L 1161.289062 409.585938 Z M 1161.289062 1026.582031 " fill-opacity="1" fill-rule="nonzero"/><path fill="#bde0ee" d="M 1103.019531 1062.410156 L 1103.019531 1165.613281 C 1103.019531 1201.304688 1131.957031 1230.253906 1167.667969 1230.253906 L 2275.339844 1230.253906 C 2311.03125 1230.253906 2339.984375 1201.304688 2339.984375 1165.613281 L 2339.984375 1062.410156 L 1103.019531 1062.410156 " fill-opacity="1" fill-rule="nonzero"/><path fill="#95b0bc" d="M 1757.550781 1146.332031 C 1757.550781 1166.257812 1741.417969 1182.390625 1721.492188 1182.390625 C 1701.585938 1182.390625 1685.453125 1166.257812 1685.453125 1146.332031 C 1685.453125 1126.425781 1701.585938 1110.292969 1721.492188 1110.292969 C 1741.417969 1110.292969 1757.550781 1126.425781 1757.550781 1146.332031 " fill-opacity="1" fill-rule="nonzero"/><path fill="#fefefe" d="M 1161.289062 1026.582031 L 2281.699219 1026.582031 L 2281.699219 406.507812 L 1161.289062 406.507812 Z M 1161.289062 1026.582031 " fill-opacity="1" fill-rule="nonzero"/><path fill="#cfcac3" d="M 2010.449219 489.289062 C 2044.652344 504.394531 2095.597656 508.929688 2146.296875 509.3125 C 2191.679688 509.660156 2236.730469 508.070312 2281.699219 505.917969 L 2281.699219 406.507812 L 1949.695312 406.507812 C 1953.207031 434.199219 1960.675781 467.308594 2010.449219 489.289062 " fill-opacity="1" fill-rule="nonzero"/><path fill="#cfcac3" d="M 1817.707031 647.675781 C 1920.429688 636.894531 2022.375 627.539062 2131.589844 630.285156 C 2155.871094 630.882812 2179.722656 632.058594 2203.109375 633.78125 C 2227.753906 611.4375 2254.632812 589.476562 2281.699219 567.515625 L 2281.699219 519.28125 C 2223.183594 522.363281 2163.207031 525.429688 2104.410156 522.296875 C 1951.253906 514.132812 1918.707031 456.292969 1911.984375 406.507812 L 1587.269531 406.507812 C 1668.210938 437.878906 1722.207031 478.289062 1757.121094 520.542969 C 1791.222656 561.765625 1807.933594 604.664062 1817.707031 647.675781 " fill-opacity="1" fill-rule="nonzero"/><path fill="#cfcac3" d="M 2086.753906 841.976562 C 1994.085938 836.425781 1904.097656 856.980469 1813.601562 862.8125 C 1808.960938 876.574219 1803.28125 890.304688 1796.390625 903.9375 C 1777.941406 940.472656 1751.324219 983.304688 1737.808594 1026.582031 L 2133.445312 1026.582031 C 2093.792969 966.492188 2081.75 903.355469 2086.753906 841.976562 " fill-opacity="1" fill-rule="nonzero"/><path fill="#cfcac3" d="M 2080.875 643.984375 C 1990.90625 644.449219 1905.707031 652.761719 1820.707031 661.855469 C 1822.792969 672.585938 1824.515625 683.320312 1826.023438 694.019531 C 1833.292969 745.214844 1832.648438 797.007812 1818.15625 848.101562 C 1824.960938 847.621094 1831.769531 847.078125 1838.609375 846.445312 C 1921.640625 838.664062 2002.480469 823.441406 2088.226562 827.765625 C 2094.40625 778.6875 2112.65625 730.292969 2153.519531 683.484375 C 2164.136719 671.296875 2175.960938 659.289062 2188.449219 647.394531 C 2153.566406 645.011719 2117.710938 643.800781 2080.875 643.984375 " fill-opacity="1" fill-rule="nonzero"/><path fill="#6da56e" d="M 1926.160156 850.886719 C 1888.578125 855.457031 1851.132812 860.394531 1813.601562 862.8125 C 1808.960938 876.574219 1803.28125 890.304688 1796.390625 903.9375 C 1779.976562 936.414062 1757.171875 973.914062 1742.808594 1012.242188 C 1893.480469 982.824219 1877.996094 907.496094 1926.160156 850.886719 " fill-opacity="1" fill-rule="nonzero"/><path fill="#6da56e" d="M 1838.609375 846.445312 C 1873.144531 843.21875 1907.296875 838.695312 1941.582031 834.835938 C 1975.003906 801.695312 2006.539062 770.042969 2009.207031 733.636719 C 2011.476562 702.816406 1992.394531 673.050781 1944 650.09375 C 1902.527344 653.308594 1861.582031 657.484375 1820.707031 661.855469 C 1822.792969 672.585938 1824.515625 683.320312 1826.023438 694.019531 C 1833.292969 745.214844 1832.648438 797.007812 1818.15625 848.101562 C 1824.960938 847.621094 1831.769531 847.078125 1838.609375 846.445312 " fill-opacity="1" fill-rule="nonzero"/><path fill="#cfcac3" d="M 2281.699219 641.648438 L 2281.699219 601.300781 C 2267.4375 613.128906 2253.523438 625.003906 2240.226562 636.996094 C 2254.21875 638.371094 2268.050781 639.910156 2281.699219 641.648438 " fill-opacity="1" fill-rule="nonzero"/><path fill="#cfcac3" d="M 2225.617188 650.460938 C 2206.320312 668.695312 2188.796875 687.210938 2174.40625 706.160156 C 2144.160156 745.976562 2121.15625 913.757812 2147.160156 979.695312 C 2153.304688 995.296875 2162.363281 1010.964844 2172.730469 1026.582031 L 2281.699219 1026.582031 L 2281.699219 656.871094 C 2263.3125 654.367188 2244.613281 652.25 2225.617188 650.460938 " fill-opacity="1" fill-rule="nonzero"/><path fill="#7fd5f6" d="M 2143.199219 807.175781 C 2133.476562 869.089844 2132.085938 941.484375 2147.160156 979.695312 C 2153.304688 995.296875 2162.363281 1010.964844 2172.730469 1026.582031 L 2281.699219 1026.582031 L 2281.699219 887.988281 C 2254.238281 856.535156 2208.671875 829.171875 2143.199219 807.175781 " fill-opacity="1" fill-rule="nonzero"/><path fill="#cfcac3" d="M 1340.035156 605.09375 C 1386.824219 626.378906 1422.933594 650.261719 1450.292969 675.71875 C 1548.015625 673.085938 1644.890625 665.832031 1739.300781 655.976562 C 1753.425781 654.5 1767.488281 652.992188 1781.515625 651.503906 C 1762.851562 562.363281 1711.539062 464.578125 1533.738281 406.507812 L 1161.289062 406.507812 L 1161.289062 547.355469 C 1227.65625 563.457031 1289.417969 582.074219 1340.035156 605.09375 " fill-opacity="1" fill-rule="nonzero"/><path fill="#7fd5f6" d="M 1670 473.933594 C 1643.117188 499.472656 1602.707031 523.09375 1548.328125 543.363281 C 1482.855469 567.746094 1409.648438 585.136719 1403.800781 623.230469 C 1402.957031 628.695312 1403.125 634.261719 1403.933594 639.84375 C 1421.589844 651.335938 1436.996094 663.347656 1450.292969 675.71875 C 1548.015625 673.085938 1644.890625 665.832031 1739.300781 655.976562 C 1753.425781 654.5 1767.488281 652.992188 1781.515625 651.503906 C 1768.914062 591.28125 1741.335938 527.148438 1670 473.933594 " fill-opacity="1" fill-rule="nonzero"/><path fill="#cfcac3" d="M 1522.441406 843.597656 C 1608.800781 845.570312 1692.675781 852.773438 1778.421875 850.074219 C 1792.035156 803.417969 1795.183594 756.429688 1790.179688 709.207031 C 1788.707031 695.210938 1786.851562 680.652344 1784.25 665.78125 C 1743.242188 670.203125 1702.132812 674.574219 1660.378906 678.085938 C 1594.753906 683.617188 1529.050781 687.3125 1463.757812 688.984375 C 1509.855469 738.058594 1525.390625 792.003906 1522.441406 843.597656 " fill-opacity="1" fill-rule="nonzero"/><path fill="#cfcac3" d="M 1521.214844 857.777344 C 1520.6875 862.066406 1520.074219 866.339844 1519.3125 870.578125 C 1509.789062 923.398438 1483.550781 975.570312 1445.457031 1026.582031 L 1703.140625 1026.582031 C 1713.542969 989.316406 1733.070312 952.367188 1752.070312 915.664062 C 1760.863281 898.667969 1768.085938 881.625 1773.882812 864.550781 C 1688.617188 866.769531 1606.332031 859.679688 1521.214844 857.777344 " fill-opacity="1" fill-rule="nonzero"/><path fill="#fef659" d="M 1794.089844 506.53125 C 1749.386719 472.34375 1693.4375 440.476562 1648.152344 406.507812 L 1587.269531 406.507812 C 1668.210938 437.878906 1722.207031 478.289062 1757.121094 520.542969 C 1791.222656 561.765625 1807.933594 604.664062 1817.707031 647.675781 C 1837.316406 645.625 1856.910156 643.621094 1876.523438 641.746094 C 1865.65625 595.191406 1850.652344 549.808594 1794.089844 506.53125 " fill-opacity="1" fill-rule="nonzero"/><path fill="#fef659" d="M 1790.179688 709.207031 C 1788.707031 695.210938 1786.851562 680.652344 1784.25 665.78125 C 1757.832031 668.628906 1731.367188 671.429688 1704.730469 674.011719 C 1736.167969 732.742188 1733.402344 791.824219 1711.769531 850.421875 C 1733.914062 850.804688 1756.109375 850.785156 1778.421875 850.074219 C 1792.035156 803.417969 1795.183594 756.429688 1790.179688 709.207031 " fill-opacity="1" fill-rule="nonzero"/><path fill="#fef659" d="M 1706.191406 864.601562 C 1683.21875 919.324219 1644.941406 973.550781 1603.882812 1026.582031 L 1703.140625 1026.582031 C 1713.542969 989.316406 1733.070312 952.367188 1752.070312 915.664062 C 1760.863281 898.667969 1768.085938 881.625 1773.882812 864.550781 C 1751.140625 865.128906 1728.617188 865.0625 1706.191406 864.601562 " fill-opacity="1" fill-rule="nonzero"/><path fill="#cfcac3" d="M 1299.273438 898.535156 C 1283.738281 850.222656 1239.101562 806.960938 1161.289062 771.46875 L 1161.289062 1026.582031 L 1308.316406 1026.582031 C 1310.570312 983.800781 1312.921875 940.988281 1299.273438 898.535156 " fill-opacity="1" fill-rule="nonzero"/><path fill="#cfcac3" d="M 1301.445312 675.851562 C 1337.433594 676.8125 1373.394531 677.011719 1409.285156 676.546875 C 1378.824219 649.070312 1337.453125 623.59375 1281.984375 601.929688 C 1245.476562 587.6875 1204.601562 575.382812 1161.289062 564.351562 L 1161.289062 667.585938 C 1206.984375 671.757812 1253.757812 674.558594 1301.445312 675.851562 " fill-opacity="1" fill-rule="nonzero"/><path fill="#6da56e" d="M 1257.816406 552.042969 C 1280.722656 506.066406 1445.757812 448.609375 1340.019531 406.507812 L 1161.289062 406.507812 L 1161.289062 547.355469 C 1192.558594 554.925781 1222.722656 563.109375 1251.257812 572.003906 C 1252.617188 565.34375 1254.503906 558.6875 1257.816406 552.042969 " fill-opacity="1" fill-rule="nonzero"/><path fill="#6da56e" d="M 1229.976562 630.21875 C 1242.347656 616.902344 1245.859375 603.371094 1248.210938 589.773438 C 1220.847656 580.53125 1191.714844 572.101562 1161.289062 564.351562 L 1161.289062 667.238281 C 1191.597656 657.613281 1215.730469 645.539062 1229.976562 630.21875 " fill-opacity="1" fill-rule="nonzero"/><path fill="#cfcac3" d="M 1484.878906 843.648438 C 1487.246094 797.140625 1473.632812 750.730469 1437.257812 705.863281 C 1432.871094 700.445312 1428.101562 695.113281 1423 689.8125 C 1334.371094 690.9375 1246.71875 688.207031 1161.289062 681.035156 L 1161.289062 750.21875 C 1253.378906 786.488281 1310.140625 831.671875 1331.570312 883.628906 C 1351.050781 930.882812 1348.464844 978.765625 1345.980469 1026.582031 L 1405.675781 1026.582031 C 1410.011719 1020.851562 1414.285156 1015.089844 1418.34375 1009.308594 C 1453.125 959.71875 1485.125 879.9375 1484.878906 843.648438 " fill-opacity="1" fill-rule="nonzero"/><path fill="#6da56e" d="M 1578.457031 859.679688 C 1559.476562 858.917969 1540.414062 858.207031 1521.214844 857.777344 C 1520.6875 862.066406 1520.074219 866.339844 1519.3125 870.578125 C 1509.789062 923.398438 1483.550781 975.570312 1445.457031 1026.582031 L 1478.617188 1026.582031 C 1549.703125 978.238281 1560.667969 916.855469 1578.457031 859.679688 " fill-opacity="1" fill-rule="nonzero"/><path fill="#6da56e" d="M 1437.257812 705.863281 C 1432.871094 700.445312 1428.101562 695.113281 1423 689.8125 C 1422.121094 689.828125 1421.277344 689.8125 1420.414062 689.828125 C 1382.320312 739.585938 1372.515625 790.628906 1385.601562 843.234375 C 1394.03125 877.105469 1415.3125 910.511719 1413.625 944.632812 C 1412.429688 968.828125 1406.519531 992.730469 1413.175781 1016.363281 C 1414.898438 1014.011719 1416.6875 1011.675781 1418.34375 1009.308594 C 1453.125 959.71875 1485.125 879.9375 1484.878906 843.648438 C 1487.246094 797.140625 1473.632812 750.730469 1437.257812 705.863281 " fill-opacity="1" fill-rule="nonzero"/><path fill="#9cb9c5" d="M 1967.484375 1421.109375 L 1475.519531 1421.109375 L 1475.519531 1230.253906 L 1967.484375 1230.253906 L 1967.484375 1421.109375 " fill-opacity="1" fill-rule="nonzero"/><path fill="#7f95a0" d="M 1967.484375 1278.902344 L 1967.484375 1230.253906 L 1475.519531 1230.253906 L 1475.519531 1421.109375 C 1475.519531 1421.109375 1609.8125 1252.796875 1967.484375 1278.902344 " fill-opacity="1" fill-rule="nonzero"/><path fill="#3d3a3b" d="M 2071.398438 1472.003906 L 1371.605469 1472.003906 L 1371.605469 1421.109375 L 2071.398438 1421.109375 L 2071.398438 1472.003906 " fill-opacity="1" fill-rule="nonzero"/><path fill="#4d565c" d="M 1157.628906 1062.410156 L 1103.019531 1062.410156 L 1103.019531 847.871094 L 1161.289062 790.167969 L 1161.289062 1026.582031 L 1193.4375 1026.582031 C 1181.496094 1038.542969 1169.570312 1050.46875 1157.628906 1062.410156 " fill-opacity="1" fill-rule="nonzero"/><path fill="#c8e6f2" d="M 1103.019531 1117.015625 L 1103.019531 1062.410156 L 1157.628906 1062.410156 C 1139.425781 1080.609375 1121.222656 1098.8125 1103.019531 1117.015625 " fill-opacity="1" fill-rule="nonzero"/><path fill="#fefefe" d="M 1304.027344 916.011719 C 1302.71875 910.179688 1301.144531 904.351562 1299.273438 898.535156 C 1284.617188 852.941406 1244.019531 811.832031 1174.074219 777.511719 L 1189.613281 762.144531 C 1265.105469 796.230469 1312.441406 837.222656 1331.570312 883.628906 C 1332.035156 884.773438 1332.515625 885.933594 1332.945312 887.074219 C 1323.308594 896.714844 1313.667969 906.371094 1304.027344 916.011719 " fill-opacity="1" fill-rule="nonzero"/><path fill="#ffffff" d="M 1851.03125 369.007812 L 1586.6875 369.007812 L 1592.136719 363.609375 L 1851.03125 369.007812 " fill-opacity="1" fill-rule="nonzero"/><path fill="#4d565c" d="M 1813.515625 406.507812 L 1548.808594 406.507812 L 1586.6875 369.007812 L 1851.03125 369.007812 L 1813.515625 406.507812 " fill-opacity="1" fill-rule="nonzero"/><path fill="#fefefe" d="M 1467.121094 752.917969 C 1459.703125 737.082031 1449.847656 721.382812 1437.257812 705.863281 C 1432.871094 700.445312 1428.101562 695.113281 1423 689.8125 C 1422.765625 689.8125 1422.535156 689.8125 1422.304688 689.8125 C 1421.671875 689.8125 1421.042969 689.8125 1420.414062 689.828125 C 1420.414062 689.828125 1420.398438 689.828125 1420.398438 689.828125 C 1408.421875 689.980469 1396.464844 690.046875 1384.523438 690.046875 C 1344.390625 690.046875 1304.492188 689.234375 1264.941406 687.542969 L 1277.558594 675.070312 C 1285.492188 675.371094 1293.460938 675.636719 1301.445312 675.851562 C 1325.144531 676.480469 1348.847656 676.777344 1372.515625 676.777344 C 1384.789062 676.777344 1397.027344 676.710938 1409.285156 676.546875 C 1388.332031 657.648438 1362.195312 639.695312 1329.882812 623.265625 L 1345.632812 607.679688 C 1367.363281 617.832031 1386.726562 628.582031 1403.933594 639.792969 C 1403.933594 639.808594 1403.933594 639.828125 1403.933594 639.84375 C 1419.273438 649.832031 1432.902344 660.183594 1444.945312 670.847656 C 1446.765625 672.457031 1448.539062 674.078125 1450.292969 675.71875 C 1483.136719 674.824219 1515.882812 673.414062 1548.460938 671.578125 L 1533.605469 686.433594 C 1510.285156 687.542969 1486.996094 688.390625 1463.757812 688.984375 C 1475.402344 701.390625 1485.09375 714.09375 1493.042969 726.996094 L 1467.121094 752.917969 M 1710.347656 509.675781 C 1674.621094 471.679688 1622.332031 437.097656 1544.984375 410.300781 L 1548.808594 406.507812 L 1813.515625 406.507812 L 1587.269531 406.507812 C 1649.082031 430.457031 1695.175781 459.691406 1729.0625 490.976562 L 1710.347656 509.675781 " fill-opacity="1" fill-rule="nonzero"/><path fill="#d7d2cc" d="M 1746.835938 473.207031 C 1713.542969 451.027344 1678.464844 429.246094 1648.152344 406.507812 L 1587.269531 406.507812 L 1813.515625 406.507812 L 1746.835938 473.207031 " fill-opacity="1" fill-rule="nonzero"/><path fill="#d7d2cc" d="M 1450.292969 675.71875 C 1448.539062 674.078125 1446.765625 672.457031 1444.945312 670.847656 C 1446.765625 672.457031 1448.554688 674.078125 1450.292969 675.71875 M 1403.933594 639.792969 C 1386.726562 628.582031 1367.363281 617.832031 1345.632812 607.679688 L 1544.984375 410.300781 C 1622.332031 437.097656 1674.621094 471.679688 1710.347656 509.675781 L 1710.3125 509.726562 C 1698.71875 497.386719 1685.371094 485.414062 1670 473.933594 C 1643.117188 499.472656 1602.707031 523.09375 1548.328125 543.363281 C 1482.855469 567.746094 1409.648438 585.136719 1403.800781 623.230469 C 1402.957031 628.695312 1403.125 634.246094 1403.933594 639.792969 " fill-opacity="1" fill-rule="nonzero"/><path fill="#94dcf8" d="M 1450.292969 675.71875 C 1448.554688 674.078125 1446.765625 672.457031 1444.945312 670.847656 C 1432.902344 660.183594 1419.273438 649.832031 1403.933594 639.84375 C 1403.933594 639.828125 1403.933594 639.808594 1403.933594 639.792969 C 1403.125 634.246094 1402.957031 628.695312 1403.800781 623.230469 C 1409.648438 585.136719 1482.855469 567.746094 1548.328125 543.363281 C 1602.707031 523.09375 1643.117188 499.472656 1670 473.933594 C 1685.371094 485.414062 1698.71875 497.386719 1710.3125 509.726562 L 1548.460938 671.578125 C 1515.882812 673.414062 1483.136719 674.824219 1450.292969 675.71875 " fill-opacity="1" fill-rule="nonzero"/><path fill="#d7d2cc" d="M 1493.042969 726.996094 C 1485.09375 714.09375 1475.402344 701.390625 1463.757812 688.984375 C 1486.996094 688.390625 1510.285156 687.542969 1533.605469 686.433594 L 1493.042969 726.996094 " fill-opacity="1" fill-rule="nonzero"/><path fill="#fef775" d="M 1729.0625 490.976562 C 1695.175781 459.691406 1649.082031 430.457031 1587.269531 406.507812 L 1648.152344 406.507812 C 1678.464844 429.246094 1713.542969 451.027344 1746.835938 473.207031 L 1729.0625 490.976562 " fill-opacity="1" fill-rule="nonzero"/><path fill="#d7d2cc" d="M 1193.4375 1026.582031 L 1161.289062 1026.582031 L 1161.289062 790.167969 L 1174.074219 777.511719 C 1244.019531 811.832031 1284.617188 852.941406 1299.273438 898.535156 C 1301.144531 904.351562 1302.71875 910.179688 1304.027344 916.011719 C 1267.160156 952.878906 1230.308594 989.730469 1193.4375 1026.582031 " fill-opacity="1" fill-rule="nonzero"/><path fill="#d7d2cc" d="M 1372.515625 676.777344 C 1348.847656 676.777344 1325.144531 676.480469 1301.445312 675.851562 C 1293.460938 675.636719 1285.492188 675.371094 1277.558594 675.070312 L 1329.882812 623.265625 C 1362.195312 639.695312 1388.332031 657.648438 1409.285156 676.546875 C 1397.027344 676.710938 1384.789062 676.777344 1372.515625 676.777344 " fill-opacity="1" fill-rule="nonzero"/><path fill="#d7d2cc" d="M 1332.945312 887.074219 C 1332.515625 885.933594 1332.035156 884.773438 1331.570312 883.628906 C 1312.441406 837.222656 1265.105469 796.230469 1189.613281 762.144531 L 1264.941406 687.542969 C 1304.492188 689.234375 1344.390625 690.046875 1384.523438 690.046875 C 1396.464844 690.046875 1408.421875 689.980469 1420.398438 689.828125 C 1384.058594 737.332031 1373.476562 785.992188 1383.960938 836.078125 C 1366.964844 853.070312 1349.957031 870.082031 1332.945312 887.074219 M 1467.121094 752.917969 C 1459.703125 737.082031 1449.847656 721.382812 1437.257812 705.863281 C 1432.871094 700.445312 1428.101562 695.113281 1423 689.8125 C 1422.765625 689.8125 1422.535156 689.8125 1422.304688 689.8125 C 1422.535156 689.8125 1422.765625 689.8125 1423 689.8125 C 1428.101562 695.113281 1432.871094 700.445312 1437.257812 705.863281 C 1449.847656 721.382812 1459.703125 737.082031 1467.121094 752.917969 " fill-opacity="1" fill-rule="nonzero"/><path fill="#84b280" d="M 1383.960938 836.078125 C 1373.476562 785.992188 1384.058594 737.332031 1420.398438 689.828125 C 1420.398438 689.828125 1420.414062 689.828125 1420.414062 689.828125 C 1421.042969 689.8125 1421.671875 689.8125 1422.304688 689.8125 C 1422.535156 689.8125 1422.765625 689.8125 1423 689.8125 C 1428.101562 695.113281 1432.871094 700.445312 1437.257812 705.863281 C 1449.847656 721.382812 1459.703125 737.082031 1467.121094 752.917969 L 1397.957031 822.066406 C 1393.300781 826.738281 1388.628906 831.40625 1383.960938 836.078125 " fill-opacity="1" fill-rule="nonzero"/><path fill="#ffffff" d="M 1402.925781 1230.253906 L 1167.667969 1230.253906 C 1167.632812 1230.253906 1167.601562 1230.253906 1167.566406 1230.253906 C 1167.601562 1230.253906 1167.632812 1230.253906 1167.667969 1230.253906 L 1402.925781 1230.253906 M 1167.535156 1230.253906 C 1167.515625 1230.253906 1167.5 1230.253906 1167.46875 1230.253906 C 1167.5 1230.253906 1167.515625 1230.253906 1167.535156 1230.253906 M 1167.433594 1230.253906 C 1167.417969 1230.253906 1167.382812 1230.253906 1167.367188 1230.253906 C 1167.382812 1230.253906 1167.417969 1230.253906 1167.433594 1230.253906 M 1167.335938 1230.253906 C 1167.316406 1230.253906 1167.300781 1230.253906 1167.269531 1230.253906 C 1167.300781 1230.253906 1167.316406 1230.253906 1167.335938 1230.253906 M 1167.234375 1230.253906 C 1167.203125 1230.253906 1167.167969 1230.253906 1167.152344 1230.253906 C 1167.167969 1230.253906 1167.203125 1230.253906 1167.234375 1230.253906 M 1167.121094 1230.253906 C 1167.085938 1230.253906 1167.070312 1230.253906 1167.054688 1230.253906 C 1167.070312 1230.253906 1167.101562 1230.253906 1167.121094 1230.253906 M 1167.003906 1230.253906 C 1166.988281 1230.253906 1166.96875 1230.253906 1166.953125 1230.253906 C 1166.96875 1230.253906 1166.988281 1230.253906 1167.003906 1230.253906 M 1166.902344 1230.253906 C 1166.886719 1230.253906 1166.871094 1230.253906 1166.871094 1230.253906 C 1166.871094 1230.253906 1166.886719 1230.253906 1166.902344 1230.253906 M 1166.804688 1230.253906 C 1166.804688 1230.253906 1166.789062 1230.253906 1166.789062 1230.253906 C 1166.789062 1230.253906 1166.804688 1230.253906 1166.804688 1230.253906 M 1166.554688 1230.238281 C 1166.554688 1230.238281 1166.539062 1230.238281 1166.539062 1230.238281 C 1166.539062 1230.238281 1166.554688 1230.238281 1166.554688 1230.238281 M 1166.472656 1230.238281 C 1166.457031 1230.238281 1166.457031 1230.238281 1166.457031 1230.238281 C 1166.457031 1230.238281 1166.457031 1230.238281 1166.472656 1230.238281 " fill-opacity="1" fill-rule="nonzero"/><path fill="#4d565c" d="M 1570.507812 1062.410156 L 1282.5625 1062.410156 C 1294.472656 1050.46875 1306.363281 1038.523438 1318.273438 1026.582031 L 1606.25 1026.582031 C 1594.339844 1038.523438 1582.414062 1050.46875 1570.507812 1062.410156 M 2225.101562 406.507812 L 1936.941406 406.507812 C 1949.429688 394.019531 1961.917969 381.515625 1974.40625 369.007812 L 2262.566406 369.007812 C 2250.078125 381.515625 2237.589844 394.019531 2225.101562 406.507812 " fill-opacity="1" fill-rule="nonzero"/><path fill="#c8e6f2" d="M 1402.925781 1230.253906 L 1167.667969 1230.253906 C 1167.632812 1230.253906 1167.601562 1230.253906 1167.566406 1230.253906 C 1167.550781 1230.253906 1167.550781 1230.253906 1167.535156 1230.253906 C 1167.515625 1230.253906 1167.5 1230.253906 1167.46875 1230.253906 C 1167.449219 1230.253906 1167.449219 1230.253906 1167.433594 1230.253906 C 1167.417969 1230.253906 1167.382812 1230.253906 1167.367188 1230.253906 C 1167.367188 1230.253906 1167.351562 1230.253906 1167.335938 1230.253906 C 1167.316406 1230.253906 1167.300781 1230.253906 1167.269531 1230.253906 C 1167.253906 1230.253906 1167.253906 1230.253906 1167.234375 1230.253906 C 1167.203125 1230.253906 1167.167969 1230.253906 1167.152344 1230.253906 C 1167.136719 1230.253906 1167.136719 1230.253906 1167.121094 1230.253906 C 1167.101562 1230.253906 1167.070312 1230.253906 1167.054688 1230.253906 C 1167.035156 1230.253906 1167.019531 1230.253906 1167.003906 1230.253906 C 1166.988281 1230.253906 1166.96875 1230.253906 1166.953125 1230.253906 C 1166.9375 1230.253906 1166.921875 1230.253906 1166.902344 1230.253906 C 1166.886719 1230.253906 1166.871094 1230.253906 1166.871094 1230.253906 C 1166.855469 1230.253906 1166.820312 1230.253906 1166.804688 1230.253906 C 1166.804688 1230.253906 1166.789062 1230.253906 1166.789062 1230.253906 C 1166.707031 1230.253906 1166.640625 1230.253906 1166.554688 1230.238281 C 1166.554688 1230.238281 1166.539062 1230.238281 1166.539062 1230.238281 C 1166.523438 1230.238281 1166.488281 1230.238281 1166.472656 1230.238281 C 1166.457031 1230.238281 1166.457031 1230.238281 1166.457031 1230.238281 C 1166.425781 1230.238281 1166.390625 1230.238281 1166.375 1230.238281 C 1152.128906 1229.957031 1139.027344 1225.070312 1128.476562 1217.023438 C 1179.839844 1165.480469 1231.199219 1113.953125 1282.5625 1062.410156 L 1570.507812 1062.410156 C 1514.65625 1118.375 1458.808594 1174.324219 1402.925781 1230.253906 " fill-opacity="1" fill-rule="nonzero"/><path fill="#fefefe" d="M 1445.457031 1026.582031 L 1405.675781 1026.582031 C 1409.914062 1020.96875 1414.085938 1015.355469 1418.0625 1009.707031 C 1418.164062 1009.574219 1418.261719 1009.441406 1418.34375 1009.308594 C 1448.289062 966.625 1476.164062 901.566406 1483.1875 861.136719 C 1496.304688 847.972656 1509.421875 834.820312 1522.558594 821.652344 C 1522.90625 829.007812 1522.855469 836.328125 1522.441406 843.597656 C 1595.484375 845.269531 1666.753906 850.671875 1738.886719 850.671875 C 1742.03125 850.671875 1745.195312 850.671875 1748.34375 850.636719 C 1748.457031 850.636719 1748.574219 850.636719 1748.691406 850.636719 C 1748.722656 850.636719 1748.738281 850.636719 1748.757812 850.636719 C 1758.628906 850.570312 1768.515625 850.390625 1778.421875 850.074219 C 1788.027344 817.179688 1792.414062 784.121094 1792.414062 750.929688 C 1792.433594 737.050781 1791.652344 723.136719 1790.179688 709.207031 C 1788.707031 695.210938 1786.851562 680.652344 1784.25 665.78125 C 1757.832031 668.628906 1731.367188 671.429688 1704.730469 674.011719 C 1704.730469 674.027344 1704.75 674.027344 1704.75 674.046875 C 1691.960938 675.289062 1679.125 676.480469 1666.242188 677.589844 C 1669.867188 673.945312 1673.511719 670.300781 1677.136719 666.675781 C 1678.828125 664.96875 1680.535156 663.261719 1682.222656 661.574219 C 1701.335938 659.816406 1720.367188 657.945312 1739.300781 655.976562 C 1753.425781 654.5 1767.488281 652.992188 1781.515625 651.503906 C 1776.847656 629.210938 1770.140625 606.351562 1759.902344 583.730469 C 1768.003906 575.613281 1776.085938 567.53125 1784.183594 559.414062 C 1800.945312 588.433594 1810.984375 618.03125 1817.707031 647.675781 C 1837.316406 645.625 1856.910156 643.621094 1876.523438 641.746094 C 1876.523438 641.730469 1876.523438 641.730469 1876.523438 641.730469 C 1917.28125 637.824219 1958.160156 634.460938 1999.667969 632.308594 C 1994.699219 637.292969 1989.730469 642.261719 1984.761719 647.246094 C 1933.265625 650.328125 1882.847656 655.261719 1832.597656 660.597656 C 1828.621094 661.011719 1824.664062 661.425781 1820.707031 661.855469 C 1822.792969 672.585938 1824.515625 683.320312 1826.023438 694.019531 C 1828.921875 714.425781 1830.558594 734.914062 1830.558594 755.417969 C 1830.578125 771.996094 1829.515625 788.59375 1827.179688 805.15625 C 1807.390625 825 1787.578125 844.839844 1767.785156 864.683594 C 1766.296875 864.714844 1764.789062 864.75 1763.28125 864.765625 C 1755.613281 864.898438 1747.960938 864.964844 1740.324219 864.964844 C 1728.914062 864.964844 1717.535156 864.832031 1706.191406 864.601562 C 1706.191406 864.601562 1706.191406 864.601562 1706.191406 864.617188 C 1663.492188 863.738281 1621.171875 861.46875 1578.457031 859.679688 C 1577.761719 859.664062 1577.066406 859.632812 1576.355469 859.597656 C 1558.070312 858.851562 1539.699219 858.191406 1521.214844 857.777344 C 1520.6875 862.066406 1520.074219 866.339844 1519.3125 870.578125 C 1509.789062 923.398438 1483.550781 975.570312 1445.457031 1026.582031 M 1345.980469 1026.582031 L 1318.273438 1026.582031 C 1327.945312 1016.878906 1337.632812 1007.15625 1347.324219 997.433594 C 1347.007812 1007.15625 1346.496094 1016.878906 1345.980469 1026.582031 M 2109.230469 522.546875 C 2107.621094 522.464844 2106.015625 522.378906 2104.410156 522.296875 C 1972.039062 515.242188 1929.769531 471.085938 1916.386719 427.078125 C 1923.230469 420.222656 1930.085938 413.363281 1936.941406 406.507812 L 2225.101562 406.507812 L 1949.695312 406.507812 C 1953.207031 434.199219 1960.675781 467.308594 2010.449219 489.289062 C 2039.382812 502.074219 2080.3125 507.292969 2122.925781 508.816406 C 2118.371094 513.402344 2113.800781 517.972656 2109.230469 522.546875 " fill-opacity="1" fill-rule="nonzero"/><path fill="#d7d2cc" d="M 2122.925781 508.816406 C 2080.3125 507.292969 2039.382812 502.074219 2010.449219 489.289062 C 1960.675781 467.308594 1953.207031 434.199219 1949.695312 406.507812 L 2225.101562 406.507812 C 2191.050781 440.609375 2156.980469 474.710938 2122.925781 508.816406 " fill-opacity="1" fill-rule="nonzero"/><path fill="#d7d2cc" d="M 1876.523438 641.730469 C 1867.3125 602.261719 1855.121094 563.636719 1817.144531 526.421875 C 1850.21875 493.296875 1883.296875 460.1875 1916.386719 427.078125 C 1929.769531 471.085938 1972.039062 515.242188 2104.410156 522.296875 C 2106.015625 522.378906 2107.621094 522.464844 2109.230469 522.546875 C 2072.707031 559.132812 2036.1875 595.71875 1999.667969 632.308594 C 1958.160156 634.460938 1917.28125 637.824219 1876.523438 641.730469 " fill-opacity="1" fill-rule="nonzero"/><path fill="#d7d2cc" d="M 1968.28125 663.742188 C 1961.191406 658.972656 1953.125 654.417969 1944 650.09375 C 1906.550781 652.992188 1869.53125 656.6875 1832.597656 660.597656 C 1882.847656 655.261719 1933.265625 650.328125 1984.761719 647.246094 C 1979.277344 652.746094 1973.761719 658.246094 1968.28125 663.742188 " fill-opacity="1" fill-rule="nonzero"/><path fill="#84b280" d="M 1827.179688 805.15625 C 1829.515625 788.59375 1830.578125 771.996094 1830.558594 755.417969 C 1830.558594 734.914062 1828.921875 714.425781 1826.023438 694.019531 C 1824.515625 683.320312 1822.792969 672.585938 1820.707031 661.855469 C 1824.664062 661.425781 1828.621094 661.011719 1832.597656 660.597656 C 1869.53125 656.6875 1906.550781 652.992188 1944 650.09375 C 1953.125 654.417969 1961.191406 658.972656 1968.28125 663.742188 C 1921.242188 710.882812 1874.21875 758.019531 1827.179688 805.15625 " fill-opacity="1" fill-rule="nonzero"/><path fill="#d7d2cc" d="M 1781.515625 651.503906 C 1776.847656 629.210938 1770.121094 606.371094 1759.886719 583.746094 L 1759.902344 583.730469 C 1770.140625 606.351562 1776.847656 629.210938 1781.515625 651.503906 " fill-opacity="1" fill-rule="nonzero"/><path fill="#94dcf8" d="M 1682.222656 661.574219 C 1708.109375 635.621094 1734 609.683594 1759.886719 583.746094 C 1770.121094 606.371094 1776.847656 629.210938 1781.515625 651.503906 C 1767.488281 652.992188 1753.425781 654.5 1739.300781 655.976562 C 1720.367188 657.945312 1701.335938 659.816406 1682.222656 661.574219 " fill-opacity="1" fill-rule="nonzero"/><path fill="#d7d2cc" d="M 1738.886719 850.671875 C 1666.753906 850.671875 1595.484375 845.269531 1522.441406 843.597656 C 1522.855469 836.328125 1522.90625 829.007812 1522.558594 821.652344 C 1570.441406 773.621094 1618.339844 725.605469 1666.242188 677.589844 C 1679.125 676.480469 1691.960938 675.289062 1704.75 674.046875 C 1736.167969 732.761719 1733.402344 791.839844 1711.769531 850.421875 C 1720.898438 850.585938 1730.039062 850.671875 1739.183594 850.671875 C 1742.230469 850.671875 1745.277344 850.671875 1748.34375 850.636719 C 1745.195312 850.671875 1742.03125 850.671875 1738.886719 850.671875 M 1748.691406 850.636719 C 1748.722656 850.636719 1748.738281 850.636719 1748.757812 850.636719 C 1748.738281 850.636719 1748.722656 850.636719 1748.691406 850.636719 " fill-opacity="1" fill-rule="nonzero"/><path fill="#d7d2cc" d="M 1603.882812 1026.582031 L 1478.617188 1026.582031 C 1549.703125 978.238281 1560.667969 916.855469 1578.457031 859.679688 C 1621.171875 861.46875 1663.492188 863.738281 1706.191406 864.617188 C 1683.21875 919.324219 1644.941406 973.550781 1603.882812 1026.582031 M 1445.457031 1026.582031 C 1483.550781 975.570312 1509.789062 923.398438 1519.3125 870.578125 C 1520.074219 866.339844 1520.6875 862.066406 1521.214844 857.777344 C 1539.699219 858.191406 1558.070312 858.851562 1576.355469 859.597656 C 1558.070312 858.851562 1539.71875 858.191406 1521.214844 857.777344 C 1520.6875 862.066406 1520.074219 866.339844 1519.3125 870.578125 C 1509.789062 923.398438 1483.550781 975.570312 1445.457031 1026.582031 M 1763.28125 864.765625 C 1764.789062 864.75 1766.296875 864.714844 1767.785156 864.683594 C 1766.296875 864.714844 1764.789062 864.75 1763.28125 864.765625 " fill-opacity="1" fill-rule="nonzero"/><path fill="#fef775" d="M 1817.707031 647.675781 C 1810.984375 618.03125 1800.945312 588.433594 1784.183594 559.414062 C 1795.164062 548.417969 1806.164062 537.417969 1817.144531 526.421875 C 1855.121094 563.636719 1867.3125 602.261719 1876.523438 641.730469 C 1876.523438 641.730469 1876.523438 641.730469 1876.523438 641.746094 C 1856.910156 643.621094 1837.316406 645.625 1817.707031 647.675781 " fill-opacity="1" fill-rule="nonzero"/><path fill="#fef775" d="M 1739.183594 850.671875 C 1730.039062 850.671875 1720.898438 850.585938 1711.769531 850.421875 C 1733.402344 791.839844 1736.167969 732.761719 1704.75 674.046875 C 1704.75 674.027344 1704.730469 674.027344 1704.730469 674.011719 C 1731.367188 671.429688 1757.832031 668.628906 1784.25 665.78125 C 1786.851562 680.652344 1788.707031 695.210938 1790.179688 709.207031 C 1791.652344 723.136719 1792.433594 737.050781 1792.414062 750.929688 C 1792.414062 784.121094 1788.027344 817.179688 1778.421875 850.074219 C 1768.515625 850.390625 1758.628906 850.570312 1748.757812 850.636719 C 1748.738281 850.636719 1748.722656 850.636719 1748.691406 850.636719 C 1748.574219 850.636719 1748.457031 850.636719 1748.34375 850.636719 C 1745.277344 850.671875 1742.230469 850.671875 1739.183594 850.671875 " fill-opacity="1" fill-rule="nonzero"/><path fill="#fef775" d="M 1606.25 1026.582031 L 1603.882812 1026.582031 C 1644.941406 973.550781 1683.21875 919.324219 1706.191406 864.617188 C 1706.191406 864.601562 1706.191406 864.601562 1706.191406 864.601562 C 1717.535156 864.832031 1728.914062 864.964844 1740.324219 864.964844 C 1747.960938 864.964844 1755.613281 864.898438 1763.28125 864.765625 C 1764.789062 864.75 1766.296875 864.714844 1767.785156 864.683594 C 1748.921875 883.597656 1730.058594 902.496094 1711.191406 921.410156 C 1676.210938 956.472656 1641.230469 991.535156 1606.25 1026.582031 " fill-opacity="1" fill-rule="nonzero"/><path fill="#d7d2cc" d="M 1405.675781 1026.582031 L 1345.980469 1026.582031 C 1346.496094 1016.878906 1347.007812 1007.15625 1347.324219 997.433594 C 1369.285156 975.40625 1391.246094 953.375 1413.195312 931.347656 C 1413.671875 935.769531 1413.855469 940.191406 1413.625 944.632812 C 1412.429688 968.828125 1406.519531 992.730469 1413.175781 1016.363281 C 1414.800781 1014.144531 1416.488281 1011.941406 1418.0625 1009.707031 C 1414.085938 1015.355469 1409.914062 1020.96875 1405.675781 1026.582031 " fill-opacity="1" fill-rule="nonzero"/><path fill="#84b280" d="M 1478.617188 1026.582031 L 1445.457031 1026.582031 C 1483.550781 975.570312 1509.789062 923.398438 1519.3125 870.578125 C 1520.074219 866.339844 1520.6875 862.066406 1521.214844 857.777344 C 1539.71875 858.191406 1558.070312 858.851562 1576.355469 859.597656 C 1577.066406 859.632812 1577.761719 859.664062 1578.457031 859.679688 C 1560.667969 916.855469 1549.703125 978.238281 1478.617188 1026.582031 " fill-opacity="1" fill-rule="nonzero"/><path fill="#84b280" d="M 1413.175781 1016.363281 C 1406.519531 992.730469 1412.429688 968.828125 1413.625 944.632812 C 1413.855469 940.191406 1413.671875 935.769531 1413.195312 931.347656 C 1436.53125 907.945312 1459.851562 884.542969 1483.1875 861.136719 C 1476.164062 901.566406 1448.289062 966.625 1418.34375 1009.308594 C 1418.261719 1009.441406 1418.164062 1009.574219 1418.0625 1009.707031 C 1416.488281 1011.941406 1414.800781 1014.144531 1413.175781 1016.363281 " fill-opacity="1" fill-rule="nonzero"/><path fill="#f14358" d="M 1540.941406 572.582031 C 1546.691406 560.34375 1548.828125 548.300781 1548 534.171875 C 1545.53125 492.101562 1511.558594 457.820312 1469.507812 455.035156 C 1420.28125 451.757812 1379.339844 490.710938 1379.339844 539.242188 C 1379.339844 563.769531 1393.136719 583.445312 1406.632812 602.742188 C 1421.839844 624.472656 1436.976562 646.285156 1452.332031 667.949219 C 1457.914062 675.835938 1469.589844 675.835938 1475.15625 667.949219 C 1487.792969 649.914062 1500.082031 631.3125 1513.597656 613.972656 C 1522.65625 602.34375 1531.46875 590.386719 1538.507812 577.402344 C 1539.386719 575.777344 1540.195312 574.1875 1540.941406 572.582031 " fill-opacity="1" fill-rule="nonzero"/><path fill="#ffffff" d="M 1519.261719 539.242188 C 1519.261719 569.898438 1494.417969 594.757812 1463.742188 594.757812 C 1433.085938 594.757812 1408.222656 569.898438 1408.222656 539.242188 C 1408.222656 508.566406 1433.085938 483.707031 1463.742188 483.707031 C 1494.417969 483.707031 1519.261719 508.566406 1519.261719 539.242188 " fill-opacity="1" fill-rule="nonzero"/><path fill="#f14358" d="M 2130.148438 659.949219 C 2137.832031 643.535156 2140.699219 627.421875 2139.589844 608.523438 C 2136.277344 552.175781 2090.796875 506.265625 2034.480469 502.539062 C 1968.578125 498.148438 1913.773438 550.320312 1913.773438 615.28125 C 1913.773438 648.140625 1932.238281 674.476562 1950.292969 700.296875 C 1970.664062 729.429688 1990.9375 758.632812 2011.492188 787.648438 C 2018.960938 798.183594 2034.597656 798.183594 2042.066406 787.648438 C 2058.976562 763.484375 2075.425781 738.574219 2093.511719 715.351562 C 2105.652344 699.765625 2117.445312 683.785156 2126.886719 666.394531 C 2128.0625 664.238281 2129.136719 662.085938 2130.148438 659.949219 " fill-opacity="1" fill-rule="nonzero"/><path fill="#ffffff" d="M 2101.113281 615.28125 C 2101.113281 656.339844 2067.839844 689.632812 2026.78125 689.632812 C 1985.71875 689.632812 1952.429688 656.339844 1952.429688 615.28125 C 1952.429688 574.222656 1985.71875 540.945312 2026.78125 540.945312 C 2067.839844 540.945312 2101.113281 574.222656 2101.113281 615.28125 " fill-opacity="1" fill-rule="nonzero"/><path fill="#f2a787" d="M 1194.8125 444.550781 C 1212.484375 482.332031 1228.714844 553.914062 1231.664062 652.28125 C 1231.515625 688.453125 1226.8125 727.0625 1208.792969 734.183594 C 1193.6875 740.164062 1192.277344 711.378906 1191.234375 703.0625 C 1186.347656 663.824219 1184.609375 652.5625 1179.988281 625.980469 C 1165.398438 541.707031 1155.09375 502.933594 1148.601562 485.28125 L 1194.8125 444.550781 " fill-opacity="1" fill-rule="nonzero"/><path fill="#f2a787" d="M 1382.785156 783.972656 C 1382.785156 783.972656 1398.949219 762.6875 1440.851562 787.25 C 1440.851562 787.25 1440.074219 793.792969 1421.324219 791.589844 C 1407.976562 790.019531 1396.597656 788.34375 1389.359375 786.40625 C 1386.445312 785.644531 1384.226562 784.832031 1382.785156 783.972656 " fill-opacity="1" fill-rule="nonzero"/><path fill="#f2a787" d="M 1378.527344 807.011719 C 1378.527344 807.011719 1400.355469 822.480469 1422.351562 826.769531 C 1444.347656 831.078125 1452.976562 823.058594 1456.753906 817.710938 C 1459.320312 814.050781 1466.875 802.441406 1458.476562 801.613281 C 1450.078125 800.785156 1414.914062 785.414062 1405.738281 782.628906 C 1396.546875 779.882812 1381.425781 783.292969 1380.414062 785.148438 C 1379.40625 787.003906 1378.527344 807.011719 1378.527344 807.011719 " fill-opacity="1" fill-rule="nonzero"/><path fill="#f2a787" d="M 1197.644531 732.726562 C 1194.796875 721.863281 1188.023438 705 1201.554688 695.777344 C 1212.882812 688.039062 1217.800781 696.953125 1249.703125 714.128906 L 1249.667969 714.09375 C 1307.886719 750.960938 1374.984375 780.578125 1421.277344 794.789062 C 1473.132812 810.703125 1414.765625 817.792969 1414.765625 817.792969 C 1354.859375 809.113281 1268.75 776.070312 1197.644531 732.726562 " fill-opacity="1" fill-rule="nonzero"/><path fill="#277a70" d="M 1192.925781 423.136719 C 1208.609375 430.773438 1239.8125 544.34375 1242.976562 616.871094 C 1224.875 622.566406 1196.683594 627.105469 1173.363281 624.007812 C 1172.800781 623.941406 1153.324219 580.398438 1152.890625 580.714844 C 1129.886719 472.988281 1145.539062 465.4375 1145.570312 466.28125 C 1145.570312 466.28125 1155.722656 405.03125 1192.925781 423.136719 " fill-opacity="1" fill-rule="nonzero"/><path fill="#f2a787" d="M 1087.253906 328.496094 C 1075.808594 316.71875 1034.914062 313.589844 1032.164062 333.945312 C 1029.679688 352.214844 1026.898438 413.296875 1029.300781 422.441406 C 1035.675781 446.640625 1073.207031 485.445312 1077.332031 472.941406 C 1081.441406 460.453125 1095.171875 336.613281 1087.253906 328.496094 " fill-opacity="1" fill-rule="nonzero"/><path fill="#de9b7e" d="M 1028.589844 391.585938 C 1029.132812 370.433594 1030.707031 344.746094 1032.164062 333.945312 C 1034.914062 313.589844 1075.808594 316.71875 1087.253906 328.496094 C 1089.855469 331.164062 1090.101562 346.316406 1089.160156 365.894531 C 1065.488281 366.589844 1043.859375 375.203125 1028.589844 391.585938 " fill-opacity="1" fill-rule="nonzero"/><path fill="#385c7c" d="M 1051.328125 859.382812 C 1065.640625 984.414062 1042.550781 1176.210938 1039.785156 1211.457031 C 1034.003906 1285.210938 962.203125 1211.457031 962.203125 1211.457031 C 962.203125 1211.457031 939.429688 925.253906 948.175781 901.253906 C 956.902344 877.238281 1048.148438 831.472656 1051.328125 859.382812 " fill-opacity="1" fill-rule="nonzero"/><path fill="#385c7c" d="M 1078.175781 843.878906 C 1063.882812 968.894531 1101.382812 1183.847656 1110.738281 1217.964844 C 1120.113281 1252.070312 1173.511719 1211.457031 1173.511719 1211.457031 C 1173.511719 1211.457031 1192.0625 935.089844 1185.554688 901.039062 C 1180.765625 875.945312 1081.375 815.972656 1078.175781 843.878906 " fill-opacity="1" fill-rule="nonzero"/><path fill="#385c7c" d="M 1014.890625 950.644531 L 1112.480469 951.785156 C 1153.15625 951.785156 1185.472656 1005.964844 1185.472656 965.300781 C 1185.472656 965.300781 1198.09375 859.8125 1155.292969 784.105469 L 972.671875 784.105469 C 923.53125 849.757812 951.886719 962.1875 951.886719 1002.882812 C 951.886719 1002.882812 974.195312 950.644531 1014.890625 950.644531 " fill-opacity="1" fill-rule="nonzero"/><path fill="#273e56" d="M 1072.679688 943.851562 C 1088.179688 942.976562 1093.796875 941.816406 1101.796875 939.496094 C 1104.460938 938.71875 1106.878906 942.957031 1104.296875 943.96875 C 1086.824219 950.777344 1081.355469 949.832031 1076.257812 949.832031 L 1054.078125 949.714844 C 1054.078125 946.535156 1056.214844 944.78125 1072.679688 943.851562 " fill-opacity="1" fill-rule="nonzero"/><path fill="#f2a787" d="M 1065.273438 1422.699219 C 1065.109375 1423.210938 1058.996094 1455.226562 1058.996094 1455.226562 C 1058.996094 1455.226562 1085.628906 1485.769531 1089.007812 1473.097656 C 1093.167969 1457.5625 1100.785156 1420.445312 1100.785156 1420.445312 L 1065.273438 1422.699219 " fill-opacity="1" fill-rule="nonzero"/><path fill="#21110f" d="M 1102.292969 1423.164062 C 1102.09375 1423.992188 1101.84375 1424.96875 1101.546875 1426.125 C 1101.84375 1424.96875 1102.09375 1423.992188 1102.292969 1423.164062 " fill-opacity="1" fill-rule="nonzero"/><path fill="#21110f" d="M 1100.4375 1430.203125 C 1100.238281 1430.898438 1100.023438 1431.625 1099.808594 1432.371094 C 1100.023438 1431.609375 1100.238281 1430.898438 1100.4375 1430.203125 " fill-opacity="1" fill-rule="nonzero"/><path fill="#21110f" d="M 1102.722656 1421.355469 C 1102.640625 1421.738281 1102.492188 1422.316406 1102.308594 1423.0625 C 1102.492188 1422.316406 1102.640625 1421.738281 1102.722656 1421.355469 " fill-opacity="1" fill-rule="nonzero"/><path fill="#21110f" d="M 1102.824219 1420.910156 L 1102.757812 1421.222656 L 1102.824219 1420.910156 " fill-opacity="1" fill-rule="nonzero"/><path fill="#385c7c" d="M 1107.691406 1432.1875 L 1062.226562 1420.03125 C 1068.324219 1374.101562 1098.117188 1203.839844 1106.464844 1180.085938 C 1115.972656 1153.105469 1174.007812 1192.226562 1174.007812 1192.226562 C 1174.007812 1192.226562 1172.917969 1219.65625 1135.667969 1346.542969 C 1129.140625 1368.785156 1107.941406 1431.660156 1107.691406 1432.1875 " fill-opacity="1" fill-rule="nonzero"/><path fill="#f2a787" d="M 979.3125 1420.066406 C 979.28125 1420.613281 981.632812 1453.125 981.632812 1453.125 C 981.632812 1453.125 1011.015625 1470.863281 1013.152344 1457.894531 C 1015.121094 1445.804688 1013.035156 1408.734375 1013.035156 1408.734375 L 979.3125 1420.066406 " fill-opacity="1" fill-rule="nonzero"/><path fill="#21110f" d="M 1015.140625 1409.101562 C 1015.15625 1409.480469 1015.171875 1410.09375 1015.1875 1410.871094 C 1015.171875 1410.078125 1015.15625 1409.480469 1015.140625 1409.101562 " fill-opacity="1" fill-rule="nonzero"/><path fill="#21110f" d="M 1015.121094 1408.652344 L 1015.140625 1408.96875 L 1015.121094 1408.652344 " fill-opacity="1" fill-rule="nonzero"/><path fill="#385c7c" d="M 977.871094 1438.945312 C 974.742188 1404.792969 959.738281 1205.578125 961.742188 1179.707031 C 963.960938 1151.203125 1040.628906 1198.652344 1040.628906 1198.652344 C 1040.628906 1198.652344 1038.59375 1230.140625 1021.136719 1438.945312 L 977.871094 1438.945312 " fill-opacity="1" fill-rule="nonzero"/><path fill="#f2a787" d="M 1142.921875 736.007812 L 1052.804688 742.53125 L 960.316406 736.007812 C 968.449219 716.429688 945.773438 518.703125 937.328125 448.144531 C 935.671875 434.199219 944.566406 421.230469 958.128906 417.621094 C 980.703125 411.625 1010.1875 402.515625 1030.941406 394.101562 C 1050.816406 386.035156 1066.449219 386.332031 1084.867188 395.292969 C 1106.019531 405.578125 1144.046875 403.011719 1169.867188 423.285156 C 1182.421875 433.140625 1128.578125 699.601562 1142.921875 736.007812 " fill-opacity="1" fill-rule="nonzero"/><path fill="#36ab9c" d="M 931.746094 418.679688 C 949.300781 414.027344 997.382812 406.40625 1015.949219 399.765625 C 1027.742188 412.898438 1055.984375 460.882812 1065.472656 459.640625 C 1074.980469 458.414062 1090.929688 409.902344 1096.199219 399.367188 C 1117.878906 405.332031 1173.179688 410.433594 1194.878906 427.476562 C 1207.433594 437.332031 1187.210938 835.25 1190.855469 892.804688 C 1190.855469 892.804688 1161.539062 910.445312 1060.519531 913.195312 C 959.519531 915.960938 921.34375 892.804688 921.34375 892.804688 C 929.476562 873.230469 897.226562 515.855469 910.941406 449.207031 C 913.773438 435.441406 918.179688 422.292969 931.746094 418.679688 " fill-opacity="1" fill-rule="nonzero"/><path fill="#f2a787" d="M 885.386719 728.933594 C 867.28125 722.277344 859.566406 705.730469 859.085938 670.980469 C 862.179688 533.992188 896.332031 430.257812 920.316406 421.746094 C 959.570312 407.816406 952.085938 475.640625 952.085938 475.640625 C 952.25 474.664062 940.09375 468.171875 913.246094 624.722656 C 908.871094 650.292969 902 684.132812 902 717.703125 C 902 725.789062 900.523438 734.53125 885.386719 728.933594 " fill-opacity="1" fill-rule="nonzero"/><path fill="#277a70" d="M 850.171875 620.695312 C 859.597656 539.886719 885.550781 438.324219 920.316406 421.746094 C 958.082031 403.742188 957.054688 471.117188 957.054688 471.117188 C 957.21875 470.207031 944.199219 509.976562 920.234375 642.460938 C 896.929688 642.460938 866.472656 631.84375 850.171875 620.695312 " fill-opacity="1" fill-rule="nonzero"/><path fill="#f2a787" d="M 911.785156 848.535156 C 911.785156 848.535156 938.371094 851.167969 939.230469 897.824219 C 939.230469 897.824219 933.253906 900.441406 925.367188 883.960938 C 919.738281 872.21875 915.265625 862.050781 913.128906 855.140625 C 912.285156 852.375 911.804688 850.125 911.785156 848.535156 " fill-opacity="1" fill-rule="nonzero"/><path fill="#f2a787" d="M 889.90625 856.515625 C 889.90625 856.515625 888.070312 882.15625 895.855469 902.363281 C 903.65625 922.554688 914.984375 925.648438 921.527344 926.0625 C 925.980469 926.363281 939.84375 926.761719 936.167969 919.457031 C 932.507812 912.152344 927.304688 875.628906 924.886719 866.703125 C 922.453125 857.777344 911.671875 847.078125 909.550781 847.175781 C 907.429688 847.257812 889.90625 856.515625 889.90625 856.515625 " fill-opacity="1" fill-rule="nonzero"/><path fill="#f2a787" d="M 859.085938 670.980469 C 866.867188 663.230469 877.734375 649.25 892.65625 655.761719 C 905.160156 661.210938 900.109375 669.6875 902.082031 704.4375 L 902.082031 704.40625 C 900.9375 770.574219 910.628906 840.417969 922.617188 885.519531 C 936.035156 936.035156 899.582031 891.648438 899.582031 891.648438 C 875.78125 838.132812 859.132812 750.980469 859.085938 670.980469 " fill-opacity="1" fill-rule="nonzero"/><path fill="#273e56" d="M 1053.960938 1427.75 L 1111.019531 1442.972656 L 1117.53125 1418.605469 L 1060.472656 1403.371094 L 1053.960938 1427.75 " fill-opacity="1" fill-rule="nonzero"/><path fill="#273e56" d="M 966.691406 1438.714844 L 1025.753906 1438.714844 L 1025.753906 1413.488281 L 966.691406 1413.488281 L 966.691406 1438.714844 " fill-opacity="1" fill-rule="nonzero"/><path fill="#f7a991" d="M 1142.640625 342.359375 C 1114.632812 401.339844 1061.21875 391.832031 1031.355469 373.316406 C 994.5 350.476562 983.222656 346.75 976.796875 334.261719 C 970.402344 321.789062 962.734375 185.890625 968.398438 162.488281 C 974.078125 139.101562 1090.5 140.757812 1114.980469 143.324219 C 1166.621094 148.691406 1171.308594 282.003906 1142.640625 342.359375 " fill-opacity="1" fill-rule="nonzero"/><path fill="#f58487" d="M 1083.328125 305.640625 C 1090.285156 313.078125 1109.25 322.75 1113.65625 310.277344 C 1114.929688 306.648438 1112.992188 302.625 1110.292969 299.925781 C 1106.332031 295.949219 1100.652344 293.269531 1097.671875 288.398438 C 1095.386719 284.621094 1093.25 278.875 1091.875 274.71875 C 1091.210938 272.746094 1090.75 270.660156 1089.539062 268.988281 C 1088.332031 267.296875 1086.09375 266.121094 1084.171875 266.882812 C 1082.898438 267.378906 1082.035156 268.621094 1081.355469 269.796875 C 1075.675781 279.769531 1075.3125 293.433594 1081.589844 303.46875 C 1082.019531 304.148438 1082.617188 304.894531 1083.328125 305.640625 " fill-opacity="1" fill-rule="nonzero"/><path fill="#ffffff" d="M 1104.113281 304.515625 C 1104.113281 305.9375 1105.289062 307.113281 1106.714844 307.113281 C 1108.15625 307.113281 1109.316406 305.9375 1109.316406 304.515625 C 1109.316406 303.054688 1108.15625 301.898438 1106.714844 301.898438 C 1105.289062 301.898438 1104.113281 303.054688 1104.113281 304.515625 " fill-opacity="1" fill-rule="nonzero"/><path fill="#f7a991" d="M 949.054688 297.078125 C 954.238281 308.753906 967.039062 314.367188 977.675781 309.648438 C 988.308594 304.910156 992.730469 291.644531 987.5625 279.984375 C 982.394531 268.324219 969.574219 262.691406 958.941406 267.414062 C 948.308594 272.132812 943.886719 285.398438 949.054688 297.078125 " fill-opacity="1" fill-rule="nonzero"/><path fill="#f68280" d="M 958.046875 294.675781 C 960.914062 301.167969 967.96875 304.363281 973.75 301.796875 C 979.527344 299.230469 981.882812 291.875 979 285.382812 C 976.117188 278.875 969.078125 275.679688 963.296875 278.246094 C 957.5 280.828125 955.148438 288.167969 958.046875 294.675781 " fill-opacity="1" fill-rule="nonzero"/><path fill="#643613" d="M 967.800781 270.792969 C 971.246094 271.058594 974.941406 269.285156 978.519531 264.714844 C 988.9375 251.347656 996.207031 233.277344 1002.75 217.773438 C 1005.117188 212.125 1007.503906 206.214844 1012.109375 202.207031 C 1015.089844 199.589844 1018.816406 197.949219 1021.613281 195.167969 C 1027.675781 189.039062 1027.527344 178.605469 1023.140625 171.214844 C 1018.734375 163.8125 1011.015625 158.992188 1003.097656 155.597656 C 997.464844 153.179688 991.371094 151.308594 985.292969 152.085938 C 979.480469 152.863281 974.261719 155.980469 969.261719 159.027344 C 960.664062 164.261719 951.453125 170.238281 948.191406 179.761719 C 945.195312 188.507812 948.140625 198.414062 953.675781 205.816406 C 955.695312 208.53125 958.113281 211.117188 958.972656 214.394531 C 960.300781 219.414062 957.648438 224.5 955.710938 229.335938 C 952.796875 236.605469 951.421875 244.707031 953.128906 252.359375 C 955.296875 262.195312 961.078125 270.328125 967.800781 270.792969 " fill-opacity="1" fill-rule="nonzero"/><path fill="#643613" d="M 1159.351562 257.0625 L 1159.269531 254.59375 C 1156.835938 241.808594 1152.609375 229.039062 1148.800781 216.613281 C 1145.621094 206.3125 1138.382812 200.964844 1134.324219 191.273438 C 1131.609375 184.796875 1132.039062 176.730469 1136.695312 171.480469 C 1145.902344 161.113281 1166.457031 172.609375 1170.066406 183.605469 C 1171.855469 189.039062 1170.761719 194.96875 1169.273438 200.484375 C 1167.75 206 1165.828125 211.53125 1165.992188 217.246094 C 1166.140625 222.859375 1168.296875 228.273438 1168.34375 233.875 C 1168.410156 240.714844 1165.363281 247.039062 1161.835938 252.988281 C 1161.238281 260.292969 1160.511719 266.054688 1159.832031 268.871094 C 1160.644531 265.609375 1160.394531 261.382812 1159.617188 256.628906 L 1159.351562 257.0625 " fill-opacity="1" fill-rule="nonzero"/><path fill="#723e16" d="M 1017.042969 117.949219 C 1019.429688 115.285156 1021.8125 112.535156 1024.449219 110.265625 C 1031.335938 104.335938 1040.644531 101.289062 1049.707031 102.035156 C 1058.582031 102.746094 1067.363281 106.921875 1076.074219 105.132812 C 1080.726562 104.1875 1084.867188 101.636719 1089.09375 99.449219 C 1102.921875 92.378906 1123.179688 91.101562 1130.980469 104.535156 C 1133.84375 109.488281 1134.492188 115.699219 1138.367188 119.90625 C 1142.773438 124.660156 1149.878906 125.371094 1155.757812 128.054688 C 1164.535156 132.09375 1170.714844 141.269531 1171.128906 150.925781 C 1171.523438 159.773438 1164.898438 167.058594 1163.691406 175.769531 C 1162.234375 186.253906 1163.195312 195.300781 1155.988281 204.226562 C 1148.917969 213.003906 1135.46875 217.09375 1125.84375 211.230469 C 1120.347656 207.871094 1116.339844 201.660156 1109.976562 200.484375 C 1103.371094 199.257812 1097.339844 203.996094 1091.097656 206.445312 C 1081.835938 210.074219 1070.707031 208.515625 1062.824219 202.453125 C 1053.433594 195.25 1048.945312 186.089844 1038.824219 194.007812 C 1030.09375 200.847656 1029.515625 210.488281 1015.535156 212.191406 C 994.847656 214.726562 987.046875 197.003906 976.300781 183.441406 C 964.921875 169.0625 955.679688 155.515625 966.691406 137.378906 C 968.730469 134.050781 971.414062 130.96875 974.972656 129.445312 C 983.058594 125.96875 992.449219 131.367188 1001.078125 129.628906 C 1007.734375 128.269531 1012.40625 123.203125 1017.042969 117.949219 " fill-opacity="1" fill-rule="nonzero"/><path fill="#f36142" d="M 1108.339844 338.035156 C 1101.976562 343.984375 1093.082031 347.691406 1083.195312 347.691406 C 1077.234375 347.691406 1071.652344 346.351562 1066.75 343.984375 C 1077.695312 334.410156 1094.757812 332.324219 1108.339844 338.035156 " fill-opacity="1" fill-rule="nonzero"/><path fill="#31060a" d="M 1119.898438 319.75 C 1119.652344 336.894531 1104.59375 350.722656 1086.027344 350.722656 C 1067.460938 350.722656 1052.371094 336.894531 1052.125 319.75 L 1119.898438 319.75 " fill-opacity="1" fill-rule="nonzero"/><path fill="#ffffff" d="M 1054.808594 331.542969 C 1053.132812 327.898438 1052.191406 323.941406 1052.125 319.75 L 1119.898438 319.75 C 1119.847656 323.941406 1118.886719 327.898438 1117.230469 331.542969 L 1054.808594 331.542969 " fill-opacity="1" fill-rule="nonzero"/><path fill="#643613" d="M 1138.996094 250.519531 C 1139.011719 250.519531 1136.511719 250.949219 1133.347656 250.785156 C 1130.132812 250.683594 1126.226562 250.039062 1122.515625 248.894531 C 1120.660156 248.398438 1118.855469 247.71875 1117.167969 247.007812 C 1115.476562 246.394531 1113.902344 245.617188 1112.546875 244.804688 C 1109.828125 243.613281 1107.742188 241.972656 1107.742188 241.988281 C 1107.742188 241.988281 1109.710938 240.566406 1113.125 239.6875 C 1114.78125 239.304688 1116.71875 239.191406 1118.824219 239.207031 C 1120.875 239.324219 1122.996094 239.753906 1125.082031 240.285156 C 1127.105469 240.980469 1129.125 241.757812 1130.863281 242.769531 C 1132.601562 243.792969 1134.160156 244.871094 1135.351562 246.0625 C 1137.851562 248.25 1138.996094 250.519531 1138.996094 250.519531 " fill-opacity="1" fill-rule="nonzero"/><path fill="#643613" d="M 1036.324219 250.519531 C 1036.324219 250.519531 1037.464844 248.25 1039.964844 246.0625 C 1041.160156 244.871094 1042.714844 243.792969 1044.457031 242.769531 C 1046.195312 241.757812 1048.199219 240.980469 1050.21875 240.285156 C 1052.304688 239.753906 1054.441406 239.324219 1056.480469 239.207031 C 1058.582031 239.191406 1060.519531 239.304688 1062.175781 239.6875 C 1065.589844 240.566406 1067.558594 241.988281 1067.558594 241.988281 C 1067.558594 241.972656 1065.472656 243.613281 1062.757812 244.804688 C 1061.382812 245.617188 1059.808594 246.394531 1058.136719 247.007812 C 1056.464844 247.71875 1054.640625 248.398438 1052.785156 248.894531 C 1049.09375 250.039062 1045.167969 250.683594 1041.972656 250.785156 C 1038.808594 250.949219 1036.304688 250.519531 1036.324219 250.519531 " fill-opacity="1" fill-rule="nonzero"/><path fill="#272324" d="M 1108.769531 271.96875 C 1108.769531 278.859375 1111.867188 284.441406 1115.707031 284.441406 C 1119.550781 284.441406 1122.679688 278.859375 1122.679688 271.96875 C 1122.679688 265.078125 1119.550781 259.496094 1115.707031 259.496094 C 1111.867188 259.496094 1108.769531 265.078125 1108.769531 271.96875 " fill-opacity="1" fill-rule="nonzero"/><path fill="#ffffff" d="M 1115.972656 267.246094 C 1115.972656 269.21875 1116.867188 270.808594 1117.960938 270.808594 C 1119.070312 270.808594 1119.949219 269.21875 1119.949219 267.246094 C 1119.949219 265.292969 1119.070312 263.6875 1117.960938 263.6875 C 1116.867188 263.6875 1115.972656 265.292969 1115.972656 267.246094 " fill-opacity="1" fill-rule="nonzero"/><path fill="#272324" d="M 1052.324219 272.613281 C 1052.324219 279.503906 1055.4375 285.101562 1059.261719 285.101562 C 1063.121094 285.101562 1066.21875 279.503906 1066.21875 272.613281 C 1066.21875 265.722656 1063.121094 260.140625 1059.261719 260.140625 C 1055.4375 260.140625 1052.324219 265.722656 1052.324219 272.613281 " fill-opacity="1" fill-rule="nonzero"/><path fill="#ffffff" d="M 1060.058594 267.695312 C 1060.058594 269.664062 1060.933594 271.273438 1062.046875 271.273438 C 1063.136719 271.273438 1064.03125 269.664062 1064.03125 267.695312 C 1064.03125 265.707031 1063.136719 264.117188 1062.046875 264.117188 C 1060.933594 264.117188 1060.058594 265.707031 1060.058594 267.695312 " fill-opacity="1" fill-rule="nonzero"/><path fill="#1d2d40" d="M 1056.03125 1449.976562 L 1046.128906 1497 L 1206.488281 1497 C 1206.488281 1497 1204.519531 1452.460938 1111.71875 1449.976562 L 1056.03125 1449.976562 " fill-opacity="1" fill-rule="nonzero"/><path fill="#e0f5fd" d="M 1046.128906 1510.613281 L 1206.488281 1510.613281 L 1206.488281 1497 L 1046.128906 1497 L 1046.128906 1510.613281 " fill-opacity="1" fill-rule="nonzero"/><path fill="#273e56" d="M 970.351562 1452.675781 L 960.449219 1499.699219 L 1120.792969 1499.699219 C 1120.792969 1499.699219 1118.824219 1455.160156 1026.019531 1452.675781 L 970.351562 1452.675781 " fill-opacity="1" fill-rule="nonzero"/><g clip-path="url(#id2)"><path fill="#e0f5fd" d="M 960.449219 1513.3125 L 1120.792969 1513.3125 L 1120.792969 1499.699219 L 960.449219 1499.699219 L 960.449219 1513.3125 " fill-opacity="1" fill-rule="nonzero"/></g><path fill="#696767" d="M 1432.421875 759.675781 C 1425.632812 763.75 1423.414062 772.578125 1427.46875 779.382812 C 1431.546875 786.175781 1440.371094 788.394531 1447.179688 784.335938 C 1453.972656 780.277344 1456.191406 771.433594 1452.132812 764.644531 C 1448.058594 757.835938 1439.230469 755.617188 1432.421875 759.675781 Z M 1431.808594 758.632812 C 1439.179688 754.226562 1448.769531 756.628906 1453.175781 764.015625 C 1457.597656 771.382812 1455.164062 780.972656 1447.808594 785.378906 C 1440.4375 789.785156 1430.847656 787.382812 1426.445312 780.015625 C 1422.019531 772.644531 1424.421875 763.035156 1431.808594 758.632812 " fill-opacity="1" fill-rule="nonzero"/><path fill="#f14358" d="M 1449.117188 782.28125 C 1448.371094 780.757812 1449.003906 778.902344 1450.527344 778.160156 C 1452.050781 777.398438 1453.90625 778.027344 1454.648438 779.566406 C 1455.410156 781.074219 1454.78125 782.945312 1453.257812 783.691406 C 1451.734375 784.4375 1449.878906 783.824219 1449.117188 782.28125 Z M 1462.152344 799.90625 L 1488.421875 808.585938 L 1488.4375 808.617188 L 1488.4375 808.585938 L 1488.472656 808.601562 L 1488.453125 808.550781 L 1497.515625 782.414062 C 1503.128906 768.121094 1496.636719 758.21875 1488.621094 755.832031 C 1480.621094 753.464844 1472.71875 758.265625 1471.015625 766.566406 L 1470.019531 771.335938 L 1465.632812 769.214844 C 1457.996094 765.554688 1449.398438 768.898438 1446.417969 776.71875 C 1443.4375 784.519531 1447.378906 795.683594 1462.152344 799.90625 " fill-opacity="1" fill-rule="nonzero"/><path fill="#ffffff" d="M 1465.8125 790.746094 L 1468.761719 782.796875 L 1471.726562 774.847656 L 1479.84375 777.3125 L 1487.957031 779.796875 L 1485.539062 780.992188 L 1490.808594 791.625 L 1484.445312 794.789062 L 1480.503906 786.820312 L 1475.917969 789.089844 L 1479.84375 797.058594 L 1473.480469 800.203125 L 1468.214844 789.554688 L 1465.8125 790.746094 " fill-opacity="1" fill-rule="nonzero"/><path fill="#fbc850" d="M 1361.699219 800.734375 L 1426.726562 794.390625 L 1425.464844 781.636719 L 1402.078125 783.921875 L 1395.867188 784.535156 L 1390.351562 787.664062 L 1384.324219 785.660156 L 1379.171875 786.160156 L 1374.734375 789.191406 L 1369.449219 787.121094 L 1364.914062 787.550781 L 1360.441406 787.996094 L 1354.3125 795.019531 L 1361.699219 800.734375 " fill-opacity="1" fill-rule="nonzero"/><path fill="#f89b4e" d="M 1396.019531 786.125 L 1390.503906 789.253906 L 1384.488281 787.25 L 1379.324219 787.765625 L 1374.882812 790.78125 L 1369.617188 788.710938 L 1365.0625 789.15625 L 1360.605469 789.585938 L 1355.238281 795.75 L 1354.3125 795.019531 L 1360.441406 787.996094 L 1364.914062 787.550781 L 1369.449219 787.121094 L 1374.734375 789.191406 L 1379.171875 786.160156 L 1384.324219 785.660156 L 1390.351562 787.664062 L 1395.867188 784.535156 L 1402.078125 783.921875 L 1425.464844 781.636719 L 1425.632812 783.226562 L 1402.246094 785.511719 L 1396.019531 786.125 " fill-opacity="1" fill-rule="nonzero"/><path fill="#f9a74f" d="M 1364.066406 797.289062 L 1404.117188 793.363281 C 1404.976562 793.28125 1405.609375 792.519531 1405.507812 791.65625 L 1405.507812 791.609375 C 1405.425781 790.746094 1404.664062 790.101562 1403.800781 790.183594 L 1363.753906 794.109375 C 1362.910156 794.191406 1362.261719 794.953125 1362.363281 795.816406 L 1362.363281 795.882812 C 1362.445312 796.726562 1363.207031 797.371094 1364.066406 797.289062 " fill-opacity="1" fill-rule="nonzero"/><path fill="#fbc850" d="M 1432.605469 787.382812 C 1432.40625 785.246094 1433.945312 783.34375 1436.082031 783.144531 C 1438.203125 782.945312 1440.109375 784.484375 1440.308594 786.621094 C 1440.523438 788.757812 1438.949219 790.628906 1436.828125 790.847656 C 1434.707031 791.0625 1432.804688 789.503906 1432.605469 787.382812 Z M 1406.21875 789.953125 C 1407.296875 800.933594 1417.070312 808.949219 1428.035156 807.890625 C 1439.015625 806.8125 1447.046875 797.058594 1445.972656 786.058594 C 1444.894531 775.09375 1435.140625 767.0625 1424.140625 768.136719 C 1413.175781 769.199219 1405.144531 778.96875 1406.21875 789.953125 " fill-opacity="1" fill-rule="nonzero"/><path fill="#fde252" d="M 1411.304688 774.597656 C 1413.523438 772.148438 1416.390625 770.226562 1419.636719 769.117188 C 1425.382812 773.785156 1431.195312 778.40625 1436.863281 783.144531 L 1436.082031 783.144531 C 1433.945312 783.34375 1432.40625 785.246094 1432.605469 787.382812 C 1432.804688 789.503906 1434.707031 791.0625 1436.828125 790.847656 C 1438.949219 790.628906 1440.523438 788.757812 1440.308594 786.621094 L 1440.175781 785.941406 C 1440.917969 786.589844 1441.699219 787.21875 1442.445312 787.882812 C 1443.585938 788.875 1444.710938 789.867188 1445.855469 790.878906 C 1445.390625 794.226562 1444.066406 797.320312 1442.09375 799.9375 C 1431.84375 791.507812 1421.574219 783.042969 1411.304688 774.597656 " fill-opacity="1" fill-rule="nonzero"/><path fill="#fde252" d="M 1408.242188 779.054688 C 1408.671875 778.226562 1409.136719 777.429688 1409.683594 776.652344 C 1419.917969 785.082031 1430.152344 793.511719 1440.40625 801.941406 C 1439.761719 802.589844 1439.082031 803.203125 1438.351562 803.78125 C 1428.316406 795.53125 1418.277344 787.300781 1408.242188 779.054688 " fill-opacity="1" fill-rule="nonzero"/><path fill="#f8a44e" d="M 1409.914062 789.585938 C 1409.035156 780.644531 1415.578125 772.691406 1424.503906 771.816406 C 1433.449219 770.9375 1441.417969 777.480469 1442.277344 786.421875 C 1443.15625 795.367188 1436.613281 803.316406 1427.667969 804.195312 C 1418.742188 805.074219 1410.792969 798.53125 1409.914062 789.585938 Z M 1408.589844 789.71875 C 1409.53125 799.390625 1418.144531 806.449219 1427.800781 805.503906 C 1437.472656 804.558594 1444.546875 795.964844 1443.585938 786.308594 C 1442.660156 776.636719 1434.046875 769.5625 1424.390625 770.507812 C 1414.71875 771.46875 1407.644531 780.046875 1408.589844 789.71875 " fill-opacity="1" fill-rule="nonzero"/><path fill="#696767" d="M 1431.808594 758.632812 C 1439.179688 754.226562 1448.769531 756.628906 1453.175781 764.015625 C 1454.085938 765.539062 1454.699219 767.160156 1455.03125 768.816406 C 1454.632812 768.769531 1454.203125 768.816406 1453.820312 768.984375 C 1453.507812 767.492188 1452.960938 766.035156 1452.132812 764.644531 C 1448.058594 757.835938 1439.230469 755.617188 1432.421875 759.675781 C 1425.632812 763.75 1423.414062 772.578125 1427.46875 779.382812 C 1430.203125 783.957031 1435.289062 786.441406 1440.273438 786.355469 C 1440.371094 786.753906 1440.324219 787.167969 1440.308594 787.535156 C 1434.824219 787.699219 1429.441406 785.03125 1426.445312 780.015625 C 1422.019531 772.644531 1424.421875 763.035156 1431.808594 758.632812 " fill-opacity="1" fill-rule="nonzero"/><path fill="#696767" d="M 1445.820312 785.050781 C 1446.285156 784.832031 1446.734375 784.601562 1447.179688 784.335938 C 1449.746094 782.796875 1451.652344 780.558594 1452.828125 778.027344 L 1453.9375 778.523438 C 1452.679688 781.273438 1450.609375 783.691406 1447.808594 785.378906 C 1447.230469 785.726562 1446.632812 786.007812 1446.039062 786.292969 C 1446.039062 785.859375 1445.953125 785.445312 1445.820312 785.050781 " fill-opacity="1" fill-rule="nonzero"/></svg>